<svg width="24" height="24" viewBox="0 0 24 24" fill="none" xmlns="http://www.w3.org/2000/svg">
<path d="M17.3005 10.5H23.1992C23.5172 10.5 23.6909 10.8708 23.4873 11.1151L20.538 14.6543C20.388 14.8342 20.1117 14.8342 19.9618 14.6543L17.0124 11.1151C16.8089 10.8708 16.9826 10.5 17.3005 10.5Z" fill="white"/>
<path d="M0.800522 13.5H6.69924C7.01718 13.5 7.19086 13.1292 6.98732 12.8849L4.03796 9.3457C3.88804 9.16579 3.61172 9.16579 3.4618 9.3457L0.512438 12.8849C0.308899 13.1292 0.482583 13.5 0.800522 13.5Z" fill="white"/>
<path fill-rule="evenodd" clip-rule="evenodd" d="M11.9999 4.5C9.67114 4.5 7.59073 5.56045 6.21391 7.22758C5.95015 7.54696 5.47742 7.59205 5.15804 7.32829C4.83866 7.06452 4.79358 6.59179 5.05734 6.27242C6.70689 4.27504 9.20481 3 11.9999 3C16.4124 3 20.0819 6.17476 20.8515 10.3645C20.8598 10.4096 20.8677 10.4547 20.8753 10.5H19.35C18.6555 7.07667 15.6278 4.5 11.9999 4.5ZM4.64976 13.5C5.34428 16.9233 8.37194 19.5 11.9999 19.5C14.3286 19.5 16.409 18.4396 17.7859 16.7724C18.0496 16.453 18.5223 16.408 18.8417 16.6717C19.1611 16.9355 19.2062 17.4082 18.9424 17.7276C17.2929 19.725 14.795 21 11.9999 21C7.58733 21 3.91785 17.8252 3.14826 13.6355C3.13998 13.5904 3.13204 13.5453 3.12444 13.5H4.64976Z" fill="white"/>
</svg>
