<svg width="24" height="24" viewBox="0 0 24 24" fill="none" xmlns="http://www.w3.org/2000/svg">
<path fill-rule="evenodd" clip-rule="evenodd" d="M10.5298 1.46967C10.8227 1.76256 10.8227 2.23744 10.5298 2.53033C10.2704 2.78972 10.2704 3.21028 10.5298 3.46967C11.375 4.31485 11.375 5.68515 10.5298 6.53033C10.2369 6.82322 9.76203 6.82322 9.46914 6.53033C9.17624 6.23744 9.17624 5.76256 9.46914 5.46967C9.72853 5.21028 9.72853 4.78972 9.46914 4.53033C8.62396 3.68515 8.62396 2.31485 9.46914 1.46967C9.76203 1.17678 10.2369 1.17678 10.5298 1.46967ZM6.02965 2.96967C6.32254 3.26256 6.32254 3.73744 6.02965 4.03033L5.91353 4.14645C5.67028 4.3897 5.64291 4.77479 5.84932 5.05C6.50361 5.92239 6.41685 7.14313 5.64576 7.91421L5.52965 8.03033C5.23675 8.32322 4.76188 8.32322 4.46899 8.03033C4.17609 7.73744 4.17609 7.26256 4.46899 6.96967L4.5851 6.85355C4.82835 6.6103 4.85572 6.22521 4.64932 5.95C3.99503 5.07761 4.08178 3.85687 4.85287 3.08579L4.96899 2.96967C5.26188 2.67678 5.73675 2.67678 6.02965 2.96967ZM15.5296 2.96967C15.8225 3.26256 15.8225 3.73744 15.5296 4.03033L15.4135 4.14645C15.1703 4.3897 15.1429 4.77479 15.3493 5.05C16.0036 5.92239 15.9169 7.14313 15.1458 7.91421L15.0296 8.03033C14.7368 8.32322 14.2619 8.32322 13.969 8.03033C13.6761 7.73744 13.6761 7.26256 13.969 6.96967L14.0851 6.85355C14.3284 6.6103 14.3557 6.22521 14.1493 5.95C13.495 5.07761 13.5818 3.85687 14.3529 3.08579L14.469 2.96967C14.7619 2.67678 15.2368 2.67678 15.5296 2.96967ZM4.64672 9.24998C4.66931 9.24999 4.69222 9.25 4.71547 9.25H15.2832C15.3064 9.25 15.3293 9.24999 15.3519 9.24998C15.7146 9.24982 15.9928 9.24969 16.2333 9.29246C16.895 9.4101 17.4684 9.75939 17.8733 10.25H18.9993C21.0704 10.25 22.7493 11.9289 22.7493 14C22.7493 16.0711 21.0704 17.75 18.9993 17.75H17.6471C17.209 18.8798 16.448 19.8697 15.4429 20.5864C14.3813 21.3432 13.11 21.75 11.8063 21.75H8.19238C6.88862 21.75 5.61735 21.3432 4.55577 20.5864C3.11497 19.5591 2.17582 17.9704 1.97039 16.2129L1.56971 12.7849C1.56701 12.7618 1.56434 12.739 1.56171 12.7166C1.51945 12.3564 1.48703 12.0801 1.50158 11.8362C1.57732 10.5669 2.51339 9.51505 3.76531 9.29246C4.00585 9.24969 4.28406 9.24982 4.64672 9.24998ZM16.4676 16.4711C16.3327 16.6067 16.2493 16.7936 16.2493 17C16.2493 17.0551 16.2553 17.1088 16.2665 17.1605C15.9364 18.0395 15.3505 18.81 14.5721 19.365C13.7647 19.9406 12.7978 20.25 11.8063 20.25H8.19238C7.20081 20.25 6.23394 19.9406 5.42656 19.365C4.33076 18.5837 3.61649 17.3755 3.46025 16.0388L3.05957 12.6107C3.00575 12.1502 2.99336 12.0187 2.99892 11.9255C3.03335 11.3486 3.45883 10.8705 4.02788 10.7693C4.11974 10.753 4.25183 10.75 4.71547 10.75H15.2832C15.7468 10.75 15.8789 10.753 15.9707 10.7693C16.5398 10.8705 16.9653 11.3486 16.9997 11.9255C17.0053 12.0187 16.9929 12.1502 16.9391 12.6107L16.5384 16.0388C16.5213 16.1845 16.4977 16.3288 16.4676 16.4711ZM18.0238 16.25H18.9993C20.242 16.25 21.2493 15.2426 21.2493 14C21.2493 12.7574 20.242 11.75 18.9993 11.75H18.4906C18.4932 11.7786 18.4953 11.8073 18.4971 11.8362C18.5116 12.0801 18.4792 12.3564 18.4369 12.7166C18.4343 12.739 18.4316 12.7618 18.4289 12.7849L18.0282 16.2129C18.0268 16.2253 18.0253 16.2376 18.0238 16.25Z" fill="white"/>
</svg>
