<svg width="50" height="50" viewBox="0 0 50 50" fill="none" xmlns="http://www.w3.org/2000/svg">
<g clip-path="url(#clip0_293_1440)">
<circle cx="24.7979" cy="24.5079" r="11" fill="white"/>
<path d="M49.6725 14.5304C49.6725 10.1359 46.4401 6.60071 42.4459 6.60071C37.0358 6.34778 31.5182 6.25012 25.8795 6.25012H24.1217C18.4967 6.25012 12.9693 6.34778 7.55919 6.60168C3.57481 6.60168 0.342391 10.1564 0.342391 14.5509C0.0982501 18.0265 -0.00526552 21.503 0.000593856 24.9796C-0.00917177 28.4562 0.101505 31.936 0.332625 35.4191C0.332625 39.8136 3.56505 43.378 7.54943 43.378C13.233 43.6417 19.0631 43.7589 24.9908 43.7491C30.9283 43.7687 36.7421 43.645 42.4322 43.378C46.4264 43.378 49.6588 39.8136 49.6588 35.4191C49.8932 31.9327 50.0006 28.4562 49.9908 24.9698C50.013 21.4933 49.9069 18.0135 49.6725 14.5304ZM20.2154 34.5597V15.3702L34.3756 24.9601L20.2154 34.5597Z" fill="#FF0033"/>
</g>
<defs>
<clipPath id="clip0_293_1440">
<rect width="50" height="50" fill="white"/>
</clipPath>
</defs>
</svg>
