<svg width="54" height="54" viewBox="0 0 54 54" fill="none" xmlns="http://www.w3.org/2000/svg">
<path d="M6.95605 14.9323L22.0111 7.87421C25.2083 6.37526 28.7914 6.37526 31.9886 7.87421L47.0438 14.9324C50.3187 16.4677 50.3186 21.7824 47.0438 23.3177L31.9888 30.3758C28.7916 31.8747 25.2085 31.8747 22.0113 30.3758L11.2499 25.3306" stroke="#9E9E9E" stroke-width="2" stroke-linecap="round"/>
<path d="M5.625 33.75V27.3096C5.625 24.4313 5.625 22.9922 6.36822 21.8651C7.11143 20.738 8.4342 20.1711 11.0797 19.0373L13.5 18" stroke="#9E9E9E" stroke-width="2" stroke-linecap="round" stroke-linejoin="round"/>
<path d="M42.75 25.875V37.4072C42.75 39.6753 41.6171 41.7987 39.633 42.8975C36.3292 44.7272 31.041 47.25 27 47.25C22.959 47.25 17.6708 44.7272 14.367 42.8975C12.3829 41.7987 11.25 39.6753 11.25 37.4072V25.875" stroke="#9E9E9E" stroke-width="2" stroke-linecap="round"/>
</svg>
