<svg width="54" height="54" viewBox="0 0 54 54" fill="none" xmlns="http://www.w3.org/2000/svg">
<path d="M45.1844 6.79017L45.2193 7.78957L45.2193 7.78957L45.1844 6.79017ZM37.125 7.84699L36.8382 6.889L36.8382 6.889L37.125 7.84699ZM30.7661 10.8064L30.2652 9.94093L30.2652 9.94094L30.7661 10.8064ZM8.9604 6.91874L8.89906 7.91686L8.9604 6.91874ZM15.75 7.84699L16.0051 6.88009L16.0051 6.88009L15.75 7.84699ZM23.1351 10.97L22.6676 11.854L22.6676 11.854L23.1351 10.97ZM30.6621 45.156L31.1325 46.0385L31.1325 46.0385L30.6621 45.156ZM38.25 41.9253L37.9949 40.9584L37.9949 40.9584L38.25 41.9253ZM44.9666 41.0016L45.029 41.9996L45.029 41.9996L44.9666 41.0016ZM23.3379 45.156L22.8675 46.0385L22.8675 46.0385L23.3379 45.156ZM15.75 41.9253L16.0051 40.9584L16.0051 40.9584L15.75 41.9253ZM9.03343 41.0016L8.97101 41.9996L8.97101 41.9996L9.03343 41.0016ZM4.5 36.3233H5.5V11.2453H4.5H3.5V36.3233H4.5ZM49.5 36.3233H50.5V11.0999H49.5H48.5V36.3233H49.5ZM45.1844 6.79017L45.1496 5.79078C42.5973 5.87969 39.3241 6.14479 36.8382 6.889L37.125 7.84699L37.4118 8.80498C39.637 8.13882 42.6929 7.87757 45.2193 7.78957L45.1844 6.79017ZM37.125 7.84699L36.8382 6.889C34.6795 7.53526 32.2182 8.81065 30.2652 9.94093L30.7661 10.8064L31.267 11.6719C33.1907 10.5587 35.4862 9.38146 37.4118 8.80498L37.125 7.84699ZM8.9604 6.91874L8.89906 7.91686C11.082 8.05103 13.5993 8.31369 15.4949 8.81389L15.75 7.84699L16.0051 6.88009C13.9114 6.3276 11.2324 6.0565 9.02175 5.92063L8.9604 6.91874ZM15.75 7.84699L15.4949 8.81389C17.7395 9.4062 20.4612 10.6874 22.6676 11.854L23.1351 10.97L23.6025 10.086C21.3712 8.90616 18.482 7.53368 16.0051 6.88009L15.75 7.84699ZM30.6621 45.156L31.1325 46.0385C33.37 44.8458 36.1904 43.503 38.5051 42.8922L38.25 41.9253L37.9949 40.9584C35.4431 41.6318 32.4518 43.0688 30.1917 44.2736L30.6621 45.156ZM38.25 41.9253L38.5051 42.8922C40.3794 42.3976 42.862 42.1352 45.029 41.9996L44.9666 41.0016L44.9041 40.0035C42.7087 40.1408 40.0658 40.4119 37.9949 40.9584L38.25 41.9253ZM23.3379 45.156L23.8083 44.2736C21.5482 43.0688 18.5569 41.6318 16.0051 40.9584L15.75 41.9253L15.4949 42.8922C17.8096 43.503 20.63 44.8458 22.8675 46.0385L23.3379 45.156ZM15.75 41.9253L16.0051 40.9584C13.9342 40.4119 11.2913 40.1408 9.09586 40.0035L9.03343 41.0016L8.97101 41.9996C11.138 42.1352 13.6206 42.3976 15.4949 42.8922L15.75 41.9253ZM49.5 36.3233H48.5C48.5 38.256 46.9117 39.878 44.9041 40.0035L44.9666 41.0016L45.029 41.9996C48.0111 41.8131 50.5 39.39 50.5 36.3233H49.5ZM49.5 11.0999H50.5C50.5 8.16578 48.1705 5.68555 45.1496 5.79078L45.1844 6.79017L45.2193 7.78957C47.0214 7.72679 48.5 9.20807 48.5 11.0999H49.5ZM4.5 36.3233H3.5C3.5 39.39 5.98892 41.8131 8.97101 41.9996L9.03343 41.0016L9.09586 40.0035C7.08829 39.878 5.5 38.256 5.5 36.3233H4.5ZM30.6621 45.156L30.1917 44.2736C28.2069 45.3316 25.7931 45.3316 23.8083 44.2736L23.3379 45.156L22.8675 46.0385C25.4403 47.4099 28.5597 47.4099 31.1325 46.0385L30.6621 45.156ZM30.7661 10.8064L30.2652 9.94094C28.2227 11.1231 25.6798 11.1844 23.6025 10.086L23.1351 10.97L22.6676 11.854C25.3627 13.2792 28.6372 13.1939 31.267 11.6719L30.7661 10.8064ZM4.5 11.2453H5.5C5.5 9.30906 7.04902 7.80316 8.89906 7.91686L8.9604 6.91874L9.02175 5.92063C5.93933 5.73118 3.5 8.23977 3.5 11.2453H4.5Z" fill="#9E9E9E"/>
<path d="M27 12L27 47" stroke="#9E9E9E" stroke-width="2"/>
<path d="M11.25 20.25L20.25 22.5" stroke="#9E9E9E" stroke-width="2" stroke-linecap="round"/>
<path d="M42.75 20.25L33.75 22.5" stroke="#9E9E9E" stroke-width="2" stroke-linecap="round"/>
<path d="M11.25 29.25L20.25 31.5" stroke="#9E9E9E" stroke-width="2" stroke-linecap="round"/>
<path d="M42.75 29.25L33.75 31.5" stroke="#9E9E9E" stroke-width="2" stroke-linecap="round"/>
</svg>
