<svg width="25" height="25" viewBox="0 0 25 25" fill="none" xmlns="http://www.w3.org/2000/svg">
<path d="M8.59375 10.9375C8.16228 10.9375 7.8125 11.2873 7.8125 11.7188C7.8125 12.1502 8.16228 12.5 8.59375 12.5H16.4062C16.8377 12.5 17.1875 12.1502 17.1875 11.7188C17.1875 11.2873 16.8377 10.9375 16.4062 10.9375H8.59375Z" fill="white"/>
<path d="M7.8125 14.8438C7.8125 14.4123 8.16228 14.0625 8.59375 14.0625H16.4062C16.8377 14.0625 17.1875 14.4123 17.1875 14.8438C17.1875 15.2752 16.8377 15.625 16.4062 15.625H8.59375C8.16228 15.625 7.8125 15.2752 7.8125 14.8438Z" fill="white"/>
<path d="M7.8125 17.9688C7.8125 17.5373 8.16228 17.1875 8.59375 17.1875H11.7188C12.1502 17.1875 12.5 17.5373 12.5 17.9688C12.5 18.4002 12.1502 18.75 11.7188 18.75H8.59375C8.16228 18.75 7.8125 18.4002 7.8125 17.9688Z" fill="white"/>
<path d="M14.8438 0H6.25C4.52411 0 3.125 1.39911 3.125 3.125V21.875C3.125 23.6009 4.52411 25 6.25 25H18.75C20.4759 25 21.875 23.6009 21.875 21.875V7.03125L14.8438 0ZM14.8438 1.5625V4.6875C14.8438 5.98192 15.8931 7.03125 17.1875 7.03125H20.3125V21.875C20.3125 22.7379 19.6129 23.4375 18.75 23.4375H6.25C5.38706 23.4375 4.6875 22.7379 4.6875 21.875V3.125C4.6875 2.26205 5.38706 1.5625 6.25 1.5625H14.8438Z" fill="white"/>
</svg>
