<svg width="54" height="54" viewBox="0 0 54 54" fill="none" xmlns="http://www.w3.org/2000/svg">
<path d="M40.5 18C40.5 25.4558 34.4558 31.5 27 31.5C19.5442 31.5 13.5 25.4558 13.5 18C13.5 10.5442 19.5442 4.5 27 4.5C34.4558 4.5 40.5 10.5442 40.5 18Z" stroke="#9E9E9E" stroke-width="2"/>
<path d="M14.625 22.9253C8.80236 24.4239 4.5 29.7095 4.5 36C4.5 43.4558 10.5442 49.5 18 49.5C25.4558 49.5 31.5 43.4558 31.5 36C31.5 34.3019 31.1865 32.6771 30.6142 31.1802" stroke="#9E9E9E" stroke-width="2"/>
<path d="M27 46.0625C29.3884 48.2001 32.5424 49.5 36 49.5C43.4558 49.5 49.5 43.4558 49.5 36C49.5 29.7095 45.1976 24.4239 39.375 22.9253" stroke="#9E9E9E" stroke-width="2"/>
</svg>
