<svg width="54" height="54" viewBox="0 0 54 54" fill="none" xmlns="http://www.w3.org/2000/svg">
<path d="M9.0274 35.464L12.8288 24.0599C14.5523 18.8893 15.4141 16.304 17.4531 15.8226C19.4922 15.3413 21.4192 17.2683 25.2731 21.1222L32.8759 28.7249C36.7298 32.5789 38.6568 34.5058 38.1754 36.5449C37.694 38.584 35.1087 39.4458 29.9381 41.1693L18.534 44.9707C12.3119 47.0447 9.20077 48.0817 7.55854 46.4395C5.91631 44.7973 6.95334 41.6862 9.0274 35.464Z" stroke="#9E9E9E" stroke-width="2" stroke-linecap="round"/>
<path d="M27.5292 41.2789C27.5292 41.2789 25.8233 36.1464 25.8233 32.7494C25.8233 29.3525 27.5292 24.22 27.5292 24.22M18.1468 43.8377C18.1468 43.8377 16.706 37.646 16.4409 33.6024C16.0028 26.9216 18.1468 16.5435 18.1468 16.5435" stroke="#9E9E9E" stroke-width="2" stroke-linecap="round"/>
<path d="M32.646 22.5137L32.97 20.8938C33.2971 19.2583 34.4755 17.9234 36.0578 17.396C37.6401 16.8686 38.8185 15.5337 39.1456 13.8982L39.4696 12.2783" stroke="#9E9E9E" stroke-width="2" stroke-linecap="round"/>
<path d="M39.5303 27.5705L40.0092 27.847C41.4877 28.7006 43.3466 28.5124 44.6239 27.3796C45.7806 26.3539 47.428 26.0938 48.8445 26.7131L49.5003 26.9999" stroke="#9E9E9E" stroke-width="2" stroke-linecap="round"/>
<path d="M23.7039 6.75C22.9446 7.99213 23.1349 9.59274 24.1643 10.6222L24.3846 10.8424C25.2692 11.727 25.5954 13.0266 25.2334 14.2241" stroke="#9E9E9E" stroke-width="2" stroke-linecap="round"/>
<path d="M30.5123 9.89171C30.9647 9.43933 31.1909 9.21314 31.4524 9.13023C31.6736 9.06011 31.9111 9.06011 32.1323 9.13023C32.3939 9.21314 32.6201 9.43933 33.0724 9.89171C33.5248 10.3441 33.751 10.5703 33.8339 10.8318C33.904 11.053 33.904 11.2905 33.8339 11.5117C33.751 11.7733 33.5248 11.9994 33.0724 12.4518C32.6201 12.9042 32.3939 13.1304 32.1323 13.2133C31.9111 13.2834 31.6736 13.2834 31.4524 13.2133C31.1909 13.1304 30.9647 12.9042 30.5123 12.4518C30.0599 11.9994 29.8337 11.7733 29.7508 11.5117C29.6807 11.2905 29.6807 11.053 29.7508 10.8318C29.8337 10.5703 30.0599 10.3441 30.5123 9.89171Z" fill="#9E9E9E"/>
<path d="M43.8035 16.8035C44.3556 16.2514 44.6317 15.9753 44.9431 15.8553C45.3076 15.7149 45.7112 15.7149 46.0757 15.8553C46.3871 15.9753 46.6632 16.2514 47.2153 16.8035C47.7674 17.3556 48.0435 17.6317 48.1635 17.9431C48.3039 18.3076 48.3039 18.7112 48.1635 19.0757C48.0435 19.3871 47.7674 19.6632 47.2153 20.2153C46.6632 20.7674 46.3871 21.0435 46.0757 21.1635C45.7112 21.3039 45.3076 21.3039 44.9431 21.1635C44.6317 21.0435 44.3556 20.7674 43.8035 20.2153C43.2514 19.6632 42.9753 19.3871 42.8553 19.0757C42.7149 18.7112 42.7149 18.3076 42.8553 17.9431C42.9753 17.6317 43.2514 17.3556 43.8035 16.8035Z" fill="#9E9E9E"/>
<path d="M15.5864 8.86666C16.0577 8.39536 16.8218 8.39536 17.2931 8.86666C17.7644 9.33797 17.7644 10.1021 17.2931 10.5734C16.8218 11.0447 16.0577 11.0447 15.5864 10.5734C15.1151 10.1021 15.1151 9.33797 15.5864 8.86666Z" fill="#9E9E9E"/>
<path d="M42.8808 34.455C43.3521 33.9837 44.1163 33.9837 44.5876 34.455C45.0589 34.9263 45.0589 35.6905 44.5876 36.1618C44.1163 36.6331 43.3521 36.6331 42.8808 36.1618C42.4095 35.6905 42.4095 34.9263 42.8808 34.455Z" fill="#9E9E9E"/>
<path d="M39.3748 21.9181C39.8461 21.4468 40.6102 21.4468 41.0815 21.9181C41.5528 22.3894 41.5528 23.1536 41.0815 23.6249C40.6102 24.0962 39.8461 24.0962 39.3748 23.6249C38.9035 23.1536 38.9035 22.3894 39.3748 21.9181Z" fill="#9E9E9E"/>
</svg>
